# xmcd CD database file
#
# Track frame offsets:
#	150
#	52852
#	86892
#	123600
#	145662
#	180087
#	215412
#	258992
#	284025
#	305747
#
# Disc length: 4362 seconds
#
# Revision: 0
# Processed by: cddbd v1.4PL0 Copyright (c) Steve Scherf et al.
# Submitted via: CDex 1.51
#
DISCID=9211080a
DTITLE=The Giants of Jazz and The Dizzy Gillespie Quintet - Live in Belgrade
DYEAR=1900
DGENRE=Jazz
TTITLE0=Blue 'N' Boogie
TTITLE1='Round Midnight
TTITLE2=Woody 'N You
TTITLE3=Lover Man
TTITLE4=Tanga
TTITLE5=The Truth
TTITLE6=Jam
TTITLE7=Groovin' High
TTITLE8=All The Things You Are
TTITLE9=Wee
EXTD=
EXTT0=
EXTT1=
EXTT2=
EXTT3=
EXTT4=
EXTT5=
EXTT6=
EXTT7=
EXTT8=
EXTT9=
PLAYORDER=
